<svg width="71" height="71" viewBox="0 0 71 71" fill="none" xmlns="http://www.w3.org/2000/svg">
<path d="M66.582 18.5837V9.99345C66.583 8.24692 65.8994 6.56973 64.6781 5.32221L62.3774 3.0195C61.5762 2.19604 60.4766 1.73117 59.3282 1.73047H59.3183C58.1663 1.73012 57.0625 2.19405 56.2562 3.01751L52.8031 6.50951L51.0696 4.99296C50.6806 4.64431 50.1764 4.45245 49.6542 4.4542C49.0816 4.45724 48.5332 4.68675 48.1291 5.09269L47.9228 5.29917L47.231 4.60082C45.8637 3.21405 43.9982 2.43338 42.0516 2.43338C40.105 2.43338 38.2394 3.21405 36.8721 4.60082C34.0231 7.49864 34.0231 12.148 36.8721 15.0457L37.5799 15.7621L37.5429 15.799C36.6955 16.6633 36.6955 18.0476 37.5429 18.9119L54.6781 36.241C54.8843 36.4512 55.1663 36.5696 55.4607 36.5696C55.755 36.5696 56.037 36.4512 56.2432 36.241L69.5506 22.7919C69.7706 22.5656 69.8893 22.2595 69.8796 21.9439C69.8705 21.6287 69.7293 21.3319 69.4908 21.1258L66.582 18.5837ZM38.9783 14.3385L38.2866 13.6401C36.203 11.5218 36.203 8.12205 38.2866 6.00372C39.2794 4.99589 40.6344 4.42848 42.0486 4.42848C43.4626 4.42848 44.8178 4.99589 45.8106 6.00372L46.5223 6.71903L38.9783 14.3385ZM64.5884 16.8277L54.3092 7.82637L57.6735 4.42415C58.1054 3.97869 58.699 3.72685 59.3193 3.7258C59.9368 3.72826 60.5273 3.9801 60.957 4.42415L63.2616 6.73388C64.1117 7.60527 64.5865 8.77551 64.5844 9.99333L64.5884 16.8277Z" fill="currentColor"/>
<path fill-rule="evenodd" clip-rule="evenodd" d="M34.949 28.6263V32.7598H49.7876L43.9852 26.9052L34.949 28.6263Z" fill="currentColor"/>
<path fill-rule="evenodd" clip-rule="evenodd" d="M27.1256 25.197V37.2777C27.1163 37.5584 27.2851 37.8145 27.5467 37.9166C27.7917 38.026 28.079 37.9673 28.2612 37.7705L32.3412 33.5419V28.1517L28.3486 24.7928C28.2059 24.6267 28.0015 24.5263 27.7828 24.515C27.7017 24.5152 27.6215 24.5315 27.5467 24.5633C27.287 24.6648 27.1186 24.9183 27.1256 25.197Z" fill="currentColor"/>
<path fill-rule="evenodd" clip-rule="evenodd" d="M20.6059 35.3676C18.4455 35.3676 16.6941 37.119 16.6941 39.2793V41.8872C16.6941 42.6074 17.278 43.1911 17.998 43.1911C18.7181 43.1911 19.3018 42.6074 19.3018 41.8872V39.2793C19.3018 38.5592 19.8857 37.9755 20.6057 37.9755C21.3259 37.9755 21.9096 37.3917 21.9096 36.6716C21.9096 35.9514 21.326 35.3676 20.6059 35.3676Z" fill="currentColor"/>
<path fill-rule="evenodd" clip-rule="evenodd" d="M20.6059 30.152C15.5677 30.1584 11.4849 34.2411 11.4785 39.2794V41.8873C11.4785 42.6074 12.0622 43.1911 12.7824 43.1911C13.5025 43.1911 14.0863 42.6074 14.0863 41.8873V39.2794C14.0905 35.6806 17.0069 32.7642 20.6059 32.7597C21.3261 32.7597 21.9098 32.176 21.9098 31.4558C21.9098 30.7357 21.3261 30.152 20.6059 30.152Z" fill="currentColor"/>
<path fill-rule="evenodd" clip-rule="evenodd" d="M20.6059 24.9363C12.6882 24.9456 6.27202 31.3618 6.2627 39.2795V41.8872C6.2627 42.6074 6.84656 43.1911 7.56656 43.1911C8.28657 43.1911 8.87044 42.6074 8.87044 41.8872V39.2793C8.87762 32.8011 14.1275 27.5512 20.6057 27.544C21.3259 27.544 21.9096 26.9602 21.9096 26.2401C21.9097 25.52 21.326 24.9363 20.6059 24.9363Z" fill="currentColor"/>
<path fill-rule="evenodd" clip-rule="evenodd" d="M45.3803 67.9657C45.3803 67.2455 44.7966 66.6618 44.0764 66.6618H24.5176V63.2063C24.7742 62.8829 25.0485 62.5739 25.3391 62.2805C25.6141 61.9859 25.9057 61.7072 26.2127 61.446H33.645C38.6836 61.4402 42.7668 57.3572 42.7724 52.3186V47.2463C40.3648 48.857 37.5326 49.7149 34.6359 49.7107C30.1616 49.7137 26.3276 52.9115 25.5215 57.3126L25.2477 58.8511C24.5198 59.4208 23.8395 60.0487 23.2136 60.7288C22.5877 60.0487 21.9074 59.4208 21.1795 58.8511L20.9057 57.3126C20.0996 52.9114 16.2656 49.7137 11.7912 49.7107C8.89455 49.7149 6.06234 48.857 3.65477 47.2463V52.3186C3.66058 57.3572 7.74363 61.4404 12.7822 61.446H20.2145C20.8312 61.9807 21.3986 62.5699 21.9096 63.2063V66.6617H2.35075C1.63058 66.6617 1.04688 67.2455 1.04688 67.9655C1.04688 68.6856 1.63074 69.2696 2.3509 69.2696H44.0764C44.7966 69.2696 45.3803 68.6859 45.3803 67.9657Z" fill="currentColor"/>
</svg>
